<?xml version="1.0" encoding="UTF-8" standalone="no"?>

<svg
   version="1.1"
   id="Layer_1"
   x="0px"
   y="0px"
   viewBox="0 0 500 60"
   style="enable-background:new 0 0 500 60;"
   xml:space="preserve"
   sodipodi:docname="start-kotlin-tour.svg"
   inkscape:version="1.3 (0e150ed, 2023-07-21)"
   xmlns:inkscape="http://www.inkscape.org/namespaces/inkscape"
   xmlns:sodipodi="http://sodipodi.sourceforge.net/DTD/sodipodi-0.dtd"
   xmlns="http://www.w3.org/2000/svg"
   xmlns:svg="http://www.w3.org/2000/svg"><defs
   id="defs21">&#10;			&#10;			&#10;		&#10;				&#10;				&#10;				&#10;				&#10;				&#10;				&#10;				&#10;				&#10;				&#10;				&#10;				&#10;				&#10;				&#10;				&#10;				&#10;				&#10;			</defs><sodipodi:namedview
   id="namedview21"
   pagecolor="#ffffff"
   bordercolor="#000000"
   borderopacity="0.25"
   inkscape:showpageshadow="2"
   inkscape:pageopacity="0.0"
   inkscape:pagecheckerboard="0"
   inkscape:deskcolor="#d1d1d1"
   inkscape:zoom="0.988"
   inkscape:cx="249.49393"
   inkscape:cy="30.870445"
   inkscape:window-width="1536"
   inkscape:window-height="860"
   inkscape:window-x="0"
   inkscape:window-y="25"
   inkscape:window-maximized="1"
   inkscape:current-layer="g3"
   showgrid="false" />&#10;<style
   type="text/css"
   id="style1">&#10;	.st0{fill:#FFFFFF;}&#10;</style>&#10;<g
   id="g21">&#10;	&#10;	<g
   id="g3"><g
     id="g5"><g
       id="g19">&#10;		<g
   id="g1">&#10;				<path
   d="M 371.6,11.8 H 128.4 c -10.1,0 -18.2,8.2 -18.2,18.2 0,10.1 8.2,18.2 18.2,18.2 h 243.2 c 4.9,0 9.5,-1.9 12.9,-5.3 3.4,-3.4 5.3,-8 5.3,-12.9 0.1,-10.1 -8.1,-18.2 -18.2,-18.2 z"
   id="path1" />&#10;			</g><path
   class="st0"
   d="m 362,39.5 -1.5,-1.5 6.1,-6 h -26.1 v -2.1 h 26.1 l -6.1,-6.1 1.5,-1.5 8.6,8.6 z"
   id="path17" />&#10;	</g><g
       id="g4"><path
         class="st0"
         d="m 219,39.5 h -2.2 V 20.6 h 2.2 v 8.8 l 8.8,-8.8 h 2.9 l -9.1,9.1 9.3,9.8 h -3 L 219,30.2 Z"
         id="path7" /><path
         class="st0"
         d="m 233.8,38.8 c -1.1,-0.6 -1.9,-1.5 -2.5,-2.6 -0.6,-1.1 -0.9,-2.3 -0.9,-3.7 0,-1.4 0.3,-2.6 0.9,-3.7 0.6,-1.1 1.4,-2 2.5,-2.6 1.1,-0.6 2.2,-0.9 3.6,-0.9 1.4,0 2.5,0.3 3.6,0.9 1.1,0.6 1.9,1.5 2.5,2.6 0.6,1.1 0.9,2.3 0.9,3.7 0,1.4 -0.3,2.6 -0.9,3.7 -0.6,1.1 -1.4,2 -2.5,2.6 -1.1,0.6 -2.2,0.9 -3.6,0.9 -1.3,0.1 -2.5,-0.2 -3.6,-0.9 z m 6,-1.7 c 0.7,-0.4 1.3,-1 1.7,-1.8 0.4,-0.8 0.6,-1.7 0.6,-2.7 0,-1 -0.2,-1.9 -0.6,-2.7 -0.4,-0.8 -1,-1.4 -1.7,-1.8 -0.7,-0.4 -1.5,-0.7 -2.4,-0.7 -0.9,0 -1.7,0.2 -2.4,0.7 -0.7,0.4 -1.3,1.1 -1.7,1.8 -0.4,0.8 -0.6,1.7 -0.6,2.7 0,1 0.2,1.9 0.6,2.7 0.4,0.8 1,1.4 1.7,1.8 0.7,0.4 1.5,0.7 2.4,0.7 0.9,0 1.7,-0.2 2.4,-0.7 z"
         id="path8" /><path
         class="st0"
         d="m 250.5,39.5 c -1,0 -1.8,-0.3 -2.4,-0.8 -0.6,-0.5 -0.9,-1.3 -0.9,-2.2 v -8.9 h -2.4 v -1.9 h 1.5 c 0.3,0 0.6,-0.1 0.8,-0.3 0.2,-0.2 0.3,-0.5 0.3,-0.8 v -2.3 h 1.9 v 3.4 h 3.3 v 1.9 h -3.3 v 8.8 c 0,0.4 0.1,0.7 0.3,0.9 0.2,0.2 0.5,0.3 0.9,0.3 h 2.1 v 1.9 z"
         id="path9" /><path
         class="st0"
         d="m 257.4,39.5 h -2.2 V 20.6 h 2.2 z"
         id="path10" /><path
         class="st0"
         d="m 260.8,23.2 v -2.6 h 2.5 v 2.6 z m 2.3,16.3 H 261 V 25.7 h 2.2 v 13.8 z"
         id="path11" /><path
         class="st0"
         d="m 275.9,26 c 0.8,0.4 1.4,1.1 1.8,1.9 0.4,0.8 0.6,1.8 0.6,2.9 v 8.7 h -2.2 V 31 c 0,-1.2 -0.3,-2.1 -0.9,-2.8 -0.6,-0.7 -1.4,-1 -2.5,-1 -0.8,0 -1.5,0.2 -2,0.5 -0.6,0.3 -1,0.8 -1.4,1.4 -0.3,0.6 -0.5,1.3 -0.5,2.2 v 8.2 h -2.2 V 25.7 h 2.1 v 2.1 c 0.4,-0.8 1,-1.4 1.8,-1.8 0.7,-0.4 1.6,-0.6 2.6,-0.6 1.1,-0.1 2,0.2 2.8,0.6 z"
         id="path12" /><path
         d="m 304.86511,23.393102 -0.552,0.144 h -5.64 l 1.464,-0.84 c -0.552,-1.032 -1.8,-2.688 -2.688,-3.888 l -2.568,1.368 c 0.696,1.008 1.584,2.328 2.16,3.36 h -9.36 v 2.808 h 14.472 c -2.568,3.264 -6.672,6.96 -10.608,9.312 h -0.144 c -1.32,0 -3.216,1.272 -4.944,3.12 l 2.064,2.688 c 0.984,-1.536 2.064,-3.144 2.808,-3.144 0.528,0 1.32,0.816 2.352,1.416 1.632,1.008 3.552,1.32 6.504,1.32 2.352,0 5.976,-0.144 7.68,-0.264 0.048,-0.768 0.528,-2.256 0.816,-3.048 -2.28,0.336 -5.952,0.576 -8.4,0.576 -2.52,0 -4.536,-0.168 -6.024,-1.08 4.824,-3.168 9.792,-7.896 12.816,-12.384 z m 25.51195,5.664 c -0.456,0.6 -1.128,1.32 -1.824,1.992 -0.192,-0.912 -0.36,-1.872 -0.48,-2.832 1.368,-0.408 2.688,-0.84 3.84,-1.344 l -2.184,-1.992 c -1.92,0.96 -4.992,1.872 -7.896,2.496 0.648,-0.816 1.2,-1.752 1.728,-2.808 h 8.664 v -2.592 h -7.56 c 0.288,-0.768 0.528,-1.56 0.696,-2.376 l -2.736,-0.528 c -0.528,2.328 -1.44,4.536 -2.712,6.216 v -2.472 h -4.272 l 1.608,-0.576 c -0.216,-0.864 -0.72,-2.208 -1.224,-3.192 l -2.472,0.768 c 0.432,0.912 0.816,2.112 1.056,3 h -4.104 v 2.64 h 2.256 v 3.264 c 0,3.264 -0.336,7.464 -2.856,11.208 0.672,0.384 1.584,1.056 2.064,1.584 2.496,-3.504 3.144,-7.584 3.288,-11.136 h 1.752 c -0.144,5.616 -0.336,7.656 -0.672,8.16 -0.192,0.288 -0.36,0.36 -0.672,0.36 -0.36,0 -1.008,0 -1.704,-0.072 0.36,0.672 0.624,1.704 0.672,2.448 0.936,0.024 1.8,0.024 2.376,-0.096 0.648,-0.096 1.152,-0.336 1.584,-1.008 0.624,-0.84 0.816,-3.648 1.008,-11.256 0.024,-0.336 0.024,-1.128 0.024,-1.128 h -4.344 v -2.328 h 4.488 c -0.264,0.336 -0.552,0.624 -0.84,0.912 0.648,0.36 1.776,1.248 2.28,1.728 l 0.096,-0.096 v 8.832 c 0,1.224 -0.6,2.064 -1.08,2.496 0.432,0.408 1.176,1.416 1.416,1.992 0.504,-0.408 1.296,-0.792 5.664,-2.64 -0.144,-0.6 -0.288,-1.776 -0.312,-2.568 l -2.952,1.176 v -8.088 c 0.528,-0.12 1.08,-0.216 1.584,-0.336 0.72,5.352 2.016,9.768 5.016,12.168 0.408,-0.744 1.296,-1.824 1.92,-2.352 -1.512,-1.08 -2.568,-2.904 -3.312,-5.088 1.008,-0.792 2.184,-1.8 3.144,-2.76 z"
         id="text24"
         style="font-size:24px;font-family:'Noto Sans CJK SC';-inkscape-font-specification:'Noto Sans CJK SC';fill:#ffffff"
         aria-label="之旅" /><g
         id="g20">&#10;		<polygon
   class="st0"
   points="193,20.6 211.9,20.6 202.4,30 211.9,39.5 193,39.5 "
   id="polygon19" />&#10;	</g><path
         d="m 143.10724,28.720999 v -0.696 -5.16 h 5.496 v 5.856 z m 13.416,0 h -4.92 v -5.856 h 4.2 v -2.688 h -20.256 v 2.688 h 4.632 v 5.136 0.72 h -5.424 v 2.736 h 5.184 c -0.456,2.832 -1.752,5.592 -5.256,7.704 0.72,0.48 1.824,1.488 2.304,2.136 4.176,-2.616 5.52,-6.264 5.952,-9.84 h 5.664 v 9.768 h 3 v -9.768 h 4.92 z m 7.77596,-2.568 c -0.216,2.256 -0.6,4.248 -1.152,6.024 -0.48,-0.432 -0.984,-0.864 -1.488,-1.272 0.36,-1.44 0.744,-3.072 1.056,-4.752 z m 1.104,-2.664 -0.48,0.048 h -1.752 c 0.264,-1.512 0.48,-3.048 0.648,-4.44 l -2.688,-0.168 c -0.12,1.44 -0.312,3.024 -0.552,4.608 h -2.04 v 2.616 h 1.584 c -0.408,2.136 -0.888,4.128 -1.344,5.664 1.08,0.864 2.232,1.896 3.336,2.976 -0.96,1.848 -2.184,3.264 -3.768,4.128 0.576,0.528 1.32,1.56 1.68,2.256 1.68,-1.104 3.024,-2.496 4.056,-4.368 0.672,0.744 1.248,1.464 1.632,2.088 l 1.704,-2.376 c -0.504,-0.72 -1.272,-1.536 -2.112,-2.4 0.96,-2.736 1.512,-6.144 1.728,-10.416 z m 15.744,5.448 c -0.672,-1.92 -2.304,-4.68 -3.936,-6.768 l -2.28,1.128 c 0.624,0.864 1.272,1.848 1.848,2.88 l -5.664,0.384 c 1.32,-2.016 2.688,-4.512 3.72,-6.96 l -2.976,-0.792 c -1.008,2.976 -2.712,6.048 -3.312,6.864 -0.552,0.864 -0.984,1.344 -1.512,1.488 0.336,0.744 0.768,2.112 0.936,2.664 0.888,-0.36 2.112,-0.48 10.128,-1.176 0.216,0.576 0.456,1.128 0.6,1.608 z m -4.32,4.728 v 4.056 h -5.856 v -4.056 z m -8.472,7.536 h 2.616 v -0.96 h 5.856 v 0.936 h 2.712 v -10.008 h -11.184 z"
         id="text3"
         style="font-size:24px;font-family:'Noto Sans CJK SC';-inkscape-font-specification:'Noto Sans CJK SC';fill:#ffffff"
         aria-label="开始" /></g></g></g>&#10;</g>&#10;</svg>
